inDegrees=no
num_controls=7
num_derivatives=13
num_iterations=112
num_multipliers=7
num_parameters=0
num_slacks=7
num_states=26
objective=0.477058
objective_accelerations=0.044303
objective_balance=0.003800
objective_effort=0.040955
objective_height=0.382331
objective_ligament=0.005669
solver_duration=1574.298341
status=Solve_Succeeded
success=true
DataType=double
version=3
OpenSimVersion=4.5
endheader
time	/jointset/ground_pelvis/pelvis_tilt/value	/jointset/ground_pelvis/pelvis_tx/value	/jointset/ground_pelvis/pelvis_ty/value	/jointset/hip_l/hip_flexion_l/value	/jointset/hip_l/hip_adduction_l/value	/jointset/hip_l/hip_rotation_l/value	/jointset/back/lumbar_extension/value	/jointset/patellofemoral_l/patellar_flexion_l/value	/jointset/knee_l/knee_flexion_l/value	/jointset/knee_l/knee_adduction_l/value	/jointset/knee_l/knee_rotation_l/value	/jointset/ankle_l/ankle_angle_l/value	/jointset/subtalar_l/subtalar_angle_l/value	/jointset/ground_pelvis/pelvis_tilt/speed	/jointset/ground_pelvis/pelvis_tx/speed	/jointset/ground_pelvis/pelvis_ty/speed	/jointset/hip_l/hip_flexion_l/speed	/jointset/hip_l/hip_adduction_l/speed	/jointset/hip_l/hip_rotation_l/speed	/jointset/back/lumbar_extension/speed	/jointset/patellofemoral_l/patellar_flexion_l/speed	/jointset/knee_l/knee_flexion_l/speed	/jointset/knee_l/knee_adduction_l/speed	/jointset/knee_l/knee_rotation_l/speed	/jointset/ankle_l/ankle_angle_l/speed	/jointset/subtalar_l/subtalar_angle_l/speed	/forceset/tau_hip_flexion_l	/forceset/tau_hip_adduction_l	/forceset/tau_hip_rotation_l	/forceset/tau_knee_flexion_l	/forceset/tau_ankle_angle_l	/forceset/tau_subtalar_angle_l	/forceset/tau_lumbar_extension	lambda_cid13_p0	lambda_cid13_p1	lambda_cid13_p2	lambda_cid13_p3	lambda_cid13_p4	lambda_cid13_p5	lambda_cid14_p0	/jointset/ground_pelvis/pelvis_tilt/accel	/jointset/ground_pelvis/pelvis_tx/accel	/jointset/ground_pelvis/pelvis_ty/accel	/jointset/hip_l/hip_flexion_l/accel	/jointset/hip_l/hip_adduction_l/accel	/jointset/hip_l/hip_rotation_l/accel	/jointset/back/lumbar_extension/accel	/jointset/patellofemoral_l/patellar_flexion_l/accel	/jointset/knee_l/knee_flexion_l/accel	/jointset/knee_l/knee_adduction_l/accel	/jointset/knee_l/knee_rotation_l/accel	/jointset/ankle_l/ankle_angle_l/accel	/jointset/subtalar_l/subtalar_angle_l/accel	gamma_cid13_p0	gamma_cid13_p1	gamma_cid13_p2	gamma_cid13_p3	gamma_cid13_p4	gamma_cid13_p5	gamma_cid14_p0
0	-0.03677709433175278	0.05665753362816347	0.9203424126381125	0.3085816938045678	-0.2956270122544243	-0.3013151750382496	-0.3879492264334186	0.2499269421185037	0.2499269421184919	-0.1745325000370364	-0.1742460895701446	-0.0008036623358878681	0.0004478085748713544	0	0	0	0	0	0	0	0	0	0	0	0	0	0.07179648190144695	-0.04265051927332124	-0.01921642246581661	-0.2376582921584538	0.1791792310246389	-0.01650784053642842	0.001141269756537492	14.06853575593363	2.022474654988303	2.288550692395877	14.4312806170019	-620.0145318109218	-70.8544065812312	-23.18718316867022	-1.073724495001857	-2.15717914418124	-0.9483803007693123	9.552954383845215	-0.8481671769506837	3.329775636574472	-7.455766561168993	9.442253183554193	9.442253183556474	1.271892093672161	-0.09814462021733968	1.479068208424852	-0.4083065907943755	5.295194693654231e-09	1.505086800297369e-07	9.92331373243763e-08	-3.016374576562368e-08	1.920562524166377e-07	-9.171228977208332e-09	-3.418541382210907e-09
0.01	-0.03682664610864105	0.05655209150020511	0.9202962529612373	0.3090455106991061	-0.2956690674829986	-0.3011486875079016	-0.3883171949979474	0.25038861466649	0.2503886146664953	-0.1744718439996107	-0.1742475973773908	-0.0007308622494061063	0.0004273595353686246	-0.009833217640232032	-0.02086588273121502	-0.00917366761491773	0.09209455889322919	-0.008316089671116461	0.03309298502299927	-0.07275081683756514	0.09180554396445145	0.09180554396446328	0.01214291432894547	-0.0002842653366366078	0.01462500828399783	-0.003967035973189142	0.06264041354492081	-0.05039985468725663	-0.01810474634138214	-0.2304711391171687	0.1694510699040651	-0.003481936620140199	0.009980908455267227	11.26533110975894	-3.094348682538452	3.047764748975033	13.46801645317884	-624.3591755698656	-80.74904429342855	-23.1925636071701	-0.9265616452985801	-2.017917442002021	-0.8930814166068148	8.937375574012565	-0.8091259588963492	3.268374298689156	-7.058304834376278	8.970360841515578	8.970360841515726	1.187282740678463	0.009039014921143155	1.463970879435291	-0.3725221375584077	-2.593702716239356e-08	1.633788090893866e-07	1.454475075003133e-07	1.236477404021774e-08	3.059495219202147e-08	-4.112198673948764e-08	-5.208578649472213e-09
0.02	-0.0369722183112933	0.0562446656240516	0.9201601123232626	0.3104102069689614	-0.2957914428276249	-0.3006574072546177	-0.3893873848487183	0.2517524738218678	0.2517524738218669	-0.1742894004912209	-0.1742514265369095	-0.0005098613318748817	0.0003709161287385419	-0.01920408515101684	-0.04039674963902952	-0.01799619221992191	0.1801758750644799	-0.01606402321040488	0.06495854458706241	-0.1404442572481296	0.1804373214739045	0.1804373214739107	0.02435749418480018	-0.000464270460958842	0.02964016620991492	-0.007198873425469137	0.05348434518841552	-0.05814919010119151	-0.01699307021713159	-0.2232839860758372	0.1597229087835048	0.009543967296155529	0.01882054715400482	8.534429429758319	-8.222316058713094	3.807023964035776	12.398971509263	-627.6170473762299	-90.55407943268885	-23.20827538237587	-0.9812544691121281	-1.890175979501398	-0.8781516987866093	8.750305839449554	-0.7345359505850872	3.084290544787237	-6.444291275768707	8.80749989255456	8.807499892553363	1.286225199054005	-0.0772925777545089	1.557098136808415	-0.2612668866126581	-5.716924901844135e-08	1.762489381490363e-07	1.916618776762502e-07	5.489329384605916e-08	-1.308663480325948e-07	-7.307274450176695e-08	-6.99861591673352e-09
0.03	-0.03720989024059194	0.05574768669657766	0.9199369655149359	0.3126386466848249	-0.2959889814219553	-0.299853080366343	-0.3911138134735742	0.2539885880401857	0.2539885880401773	-0.1739852628668828	-0.1742567968293734	-0.0001374556615926266	0.0002850294078189939	-0.02829301018072792	-0.0588672665927178	-0.0266226352582733	0.2650893889025212	-0.02341212743413586	0.09576788852267916	-0.2044905576527595	0.2664125172034022	0.2664125172034366	0.03637173401199451	-0.0006045235589208889	0.04482836069750121	-0.009949872915975908	0.0503361552414217	-0.05396273971036235	-0.01687728792158315	-0.2231962887784913	0.1625135658046059	0.006437273959352321	0.02219201137899232	9.295788529477282	-7.022117978538147	3.633647654684598	10.93069912465217	-628.6674930452479	-87.52662700397858	-23.23353060541952	-0.867123701110048	-1.805713014088324	-0.8533373039463477	8.298463128840895	-0.7302631863969264	3.05839346310338	-6.332162911841237	8.436580072394088	8.436580072399101	1.144327323557053	0.01842562818472322	1.497790228301602	-0.2777764891559449	-8.107335247167029e-08	1.485800867728025e-07	2.54458948173325e-07	7.542974841988352e-08	-2.257233158123394e-07	-1.189977315263282e-07	-1.677527562150365e-08
